{
  "header": {
    "PPQ": 960,
    "timeSignature": [
      4,
      4
    ],
    "bpm": 100,
    "name": ""
  },
  "tempo": [
    {
      "absoluteTime": 0,
      "seconds": 0,
      "bpm": 100
    }
  ],
  "timeSignature": [
    {
      "absoluteTime": 0,
      "seconds": 0,
      "numerator": 4,
      "denominator": 2,
      "click": 24,
      "notesQ": 8
    }
  ],
  "startTime": 0,
  "duration": 19.2,
  "tracks": [
    {
      "startTime": 0,
      "duration": 0,
      "length": 0,
      "notes": [],
      "controlChanges": {},
      "id": 0
    },
    {
      "startTime": 0,
      "duration": 19.2,
      "length": 53,
      "notes": [
        {
          "name": "C4",
          "midi": 60,
          "time": 0,
          "velocity": 0.5433070866141733,
          "duration": 0.6
        },
        {
          "name": "C3",
          "midi": 48,
          "time": 0,
          "velocity": 0.5826771653543307,
          "duration": 0.6
        },
        {
          "name": "C4",
          "midi": 60,
          "time": 0.6,
          "velocity": 0.5984251968503937,
          "duration": 0.6
        },
        {
          "name": "G3",
          "midi": 55,
          "time": 0.6,
          "velocity": 0.6220472440944882,
          "duration": 0.6
        },
        {
          "name": "C4",
          "midi": 60,
          "time": 1.2,
          "velocity": 0.5826771653543307,
          "duration": 0.5999999999999999
        },
        {
          "name": "E3",
          "midi": 52,
          "time": 1.2,
          "velocity": 0.5748031496062992,
          "duration": 0.5999999999999999
        },
        {
          "name": "D4",
          "midi": 62,
          "time": 1.7999999999999998,
          "velocity": 0.6299212598425197,
          "duration": 0.6000000000000001
        },
        {
          "name": "G3",
          "midi": 55,
          "time": 1.7999999999999998,
          "velocity": 0.6062992125984252,
          "duration": 0.6000000000000001
        },
        {
          "name": "E4",
          "midi": 64,
          "time": 2.4,
          "velocity": 0.6299212598425197,
          "duration": 1.2000000000000002
        },
        {
          "name": "C3",
          "midi": 48,
          "time": 2.4,
          "velocity": 0.5748031496062992,
          "duration": 0.6000000000000001
        },
        {
          "name": "G3",
          "midi": 55,
          "time": 3,
          "velocity": 0.6377952755905512,
          "duration": 0.6000000000000001
        },
        {
          "name": "D4",
          "midi": 62,
          "time": 3.6,
          "velocity": 0.5590551181102362,
          "duration": 1.1999999999999997
        },
        {
          "name": "F3",
          "midi": 53,
          "time": 3.6,
          "velocity": 0.5748031496062992,
          "duration": 0.6000000000000001
        },
        {
          "name": "G3",
          "midi": 55,
          "time": 4.2,
          "velocity": 0.6141732283464567,
          "duration": 0.5999999999999996
        },
        {
          "name": "C4",
          "midi": 60,
          "time": 4.8,
          "velocity": 0.5590551181102362,
          "duration": 0.5999999999999996
        },
        {
          "name": "E3",
          "midi": 52,
          "time": 4.8,
          "velocity": 0.6377952755905512,
          "duration": 0.5999999999999996
        },
        {
          "name": "E4",
          "midi": 64,
          "time": 5.3999999999999995,
          "velocity": 0.6456692913385826,
          "duration": 0.5999999999999996
        },
        {
          "name": "G3",
          "midi": 55,
          "time": 5.3999999999999995,
          "velocity": 0.6456692913385826,
          "duration": 0.5999999999999996
        },
        {
          "name": "D4",
          "midi": 62,
          "time": 5.999999999999999,
          "velocity": 0.6141732283464567,
          "duration": 0.5999999999999996
        },
        {
          "name": "F3",
          "midi": 53,
          "time": 5.999999999999999,
          "velocity": 0.5590551181102362,
          "duration": 0.5999999999999996
        },
        {
          "name": "D4",
          "midi": 62,
          "time": 6.599999999999999,
          "velocity": 0.6377952755905512,
          "duration": 0.5999999999999996
        },
        {
          "name": "D3",
          "midi": 50,
          "time": 6.599999999999999,
          "velocity": 0.5511811023622047,
          "duration": 0.5999999999999996
        },
        {
          "name": "C4",
          "midi": 60,
          "time": 7.199999999999998,
          "velocity": 0.5433070866141733,
          "duration": 2.3999999999999995
        },
        {
          "name": "E3",
          "midi": 52,
          "time": 7.199999999999998,
          "velocity": 0.6141732283464567,
          "duration": 0.5999999999999996
        },
        {
          "name": "G3",
          "midi": 55,
          "time": 7.799999999999998,
          "velocity": 0.6062992125984252,
          "duration": 0.6000000000000005
        },
        {
          "name": "F3",
          "midi": 53,
          "time": 8.399999999999999,
          "velocity": 0.5826771653543307,
          "duration": 0.5999999999999996
        },
        {
          "name": "D3",
          "midi": 50,
          "time": 8.999999999999998,
          "velocity": 0.5590551181102362,
          "duration": 0.5999999999999996
        },
        {
          "name": "C4",
          "midi": 60,
          "time": 9.599999999999998,
          "velocity": 0.6062992125984252,
          "duration": 0.5999999999999996
        },
        {
          "name": "C3",
          "midi": 48,
          "time": 9.599999999999998,
          "velocity": 0.5669291338582677,
          "duration": 0.5999999999999996
        },
        {
          "name": "C4",
          "midi": 60,
          "time": 10.199999999999998,
          "velocity": 0.5826771653543307,
          "duration": 0.5999999999999996
        },
        {
          "name": "G3",
          "midi": 55,
          "time": 10.199999999999998,
          "velocity": 0.6456692913385826,
          "duration": 0.5999999999999996
        },
        {
          "name": "C4",
          "midi": 60,
          "time": 10.799999999999997,
          "velocity": 0.6062992125984252,
          "duration": 0.5999999999999996
        },
        {
          "name": "E3",
          "midi": 52,
          "time": 10.799999999999997,
          "velocity": 0.5984251968503937,
          "duration": 0.5999999999999996
        },
        {
          "name": "D4",
          "midi": 62,
          "time": 11.399999999999997,
          "velocity": 0.6377952755905512,
          "duration": 0.5999999999999996
        },
        {
          "name": "G3",
          "midi": 55,
          "time": 11.399999999999997,
          "velocity": 0.6377952755905512,
          "duration": 0.5999999999999996
        },
        {
          "name": "E4",
          "midi": 64,
          "time": 11.999999999999996,
          "velocity": 0.6535433070866141,
          "duration": 1.1999999999999993
        },
        {
          "name": "C3",
          "midi": 48,
          "time": 11.999999999999996,
          "velocity": 0.5511811023622047,
          "duration": 0.5999999999999996
        },
        {
          "name": "G3",
          "midi": 55,
          "time": 12.599999999999996,
          "velocity": 0.6456692913385826,
          "duration": 0.5999999999999996
        },
        {
          "name": "D4",
          "midi": 62,
          "time": 13.199999999999996,
          "velocity": 0.5669291338582677,
          "duration": 1.1999999999999993
        },
        {
          "name": "F3",
          "midi": 53,
          "time": 13.199999999999996,
          "velocity": 0.5826771653543307,
          "duration": 0.5999999999999996
        },
        {
          "name": "G3",
          "midi": 55,
          "time": 13.799999999999995,
          "velocity": 0.6220472440944882,
          "duration": 0.5999999999999996
        },
        {
          "name": "C4",
          "midi": 60,
          "time": 14.399999999999995,
          "velocity": 0.5669291338582677,
          "duration": 0.5999999999999996
        },
        {
          "name": "E3",
          "midi": 52,
          "time": 14.399999999999995,
          "velocity": 0.5590551181102362,
          "duration": 0.5999999999999996
        },
        {
          "name": "E4",
          "midi": 64,
          "time": 14.999999999999995,
          "velocity": 0.6850393700787402,
          "duration": 0.5999999999999996
        },
        {
          "name": "G3",
          "midi": 55,
          "time": 14.999999999999995,
          "velocity": 0.6141732283464567,
          "duration": 0.5999999999999996
        },
        {
          "name": "D4",
          "midi": 62,
          "time": 15.599999999999994,
          "velocity": 0.5354330708661418,
          "duration": 0.6000000000000014
        },
        {
          "name": "F3",
          "midi": 53,
          "time": 15.599999999999994,
          "velocity": 0.5590551181102362,
          "duration": 0.6000000000000014
        },
        {
          "name": "D4",
          "midi": 62,
          "time": 16.199999999999996,
          "velocity": 0.5905511811023622,
          "duration": 0.6000000000000014
        },
        {
          "name": "B2",
          "midi": 47,
          "time": 16.199999999999996,
          "velocity": 0.5511811023622047,
          "duration": 0.6000000000000014
        },
        {
          "name": "C4",
          "midi": 60,
          "time": 16.799999999999997,
          "velocity": 0.5669291338582677,
          "duration": 2.400000000000002
        },
        {
          "name": "C3",
          "midi": 48,
          "time": 16.799999999999997,
          "velocity": 0.6456692913385826,
          "duration": 0.6000000000000014
        },
        {
          "name": "G3",
          "midi": 55,
          "time": 17.4,
          "velocity": 0.6692913385826772,
          "duration": 0.6000000000000014
        },
        {
          "name": "C3",
          "midi": 48,
          "time": 18,
          "velocity": 0.5511811023622047,
          "duration": 1.1999999999999993
        }
      ],
      "controlChanges": {
        "7": [
          {
            "number": 7,
            "time": 0,
            "value": 0.7874015748031497
          },
          {
            "number": 7,
            "time": 0,
            "value": 0.7874015748031497
          }
        ],
        "10": [
          {
            "number": 10,
            "time": 0,
            "value": 0.4015748031496063
          },
          {
            "number": 10,
            "time": 0,
            "value": 0.4015748031496063
          }
        ],
        "64": [
          {
            "number": 64,
            "time": 0,
            "value": 0
          },
          {
            "number": 64,
            "time": 0,
            "value": 0
          }
        ],
        "91": [
          {
            "number": 91,
            "time": 0,
            "value": 0.3779527559055118
          },
          {
            "number": 91,
            "time": 0,
            "value": 0.3779527559055118
          }
        ],
        "121": [
          {
            "number": 121,
            "time": 0,
            "value": 0
          },
          {
            "number": 121,
            "time": 0,
            "value": 0
          }
        ]
      },
      "id": 1,
      "name": "Piano",
      "instrumentNumber": 0,
      "instrument": "acoustic grand piano",
      "instrumentFamily": "piano",
      "channelNumber": 0,
      "isPercussion": false
    }
  ]
}